<mxfile host="app.diagrams.net" agent="Mozilla/5.0 (Macintosh; Intel Mac OS X 10_15_7) AppleWebKit/537.36 (KHTML, like Gecko) Chrome/133.0.0.0 Safari/537.36" version="26.0.11">
  <diagram id="R2lEEEUBdFMjLlhIrx00" name="Page-1">
    <mxGraphModel dx="2074" dy="1908" grid="1" gridSize="10" guides="1" tooltips="1" connect="1" arrows="1" fold="1" page="1" pageScale="1" pageWidth="850" pageHeight="1100" math="0" shadow="0" extFonts="Permanent Marker^https://fonts.googleapis.com/css?family=Permanent+Marker">
      <root>
        <mxCell id="0" />
        <mxCell id="1" parent="0" />
        <mxCell id="vugCyfD3QLyV5UbuW-dE-1" value="User" style="rounded=0;whiteSpace=wrap;html=1;fillColor=#60a917;strokeColor=#2D7600;fontColor=#ffffff;" vertex="1" parent="1">
          <mxGeometry x="590" y="290" width="100" height="50" as="geometry" />
        </mxCell>
        <mxCell id="vugCyfD3QLyV5UbuW-dE-4" value="d" style="ellipse;whiteSpace=wrap;html=1;aspect=fixed;fillColor=#f0a30a;fontColor=#000000;strokeColor=#BD7000;" vertex="1" parent="1">
          <mxGeometry x="620" y="380" width="30" height="30" as="geometry" />
        </mxCell>
        <mxCell id="vugCyfD3QLyV5UbuW-dE-9" value="Student" style="rounded=0;whiteSpace=wrap;html=1;fillColor=#60a917;fontColor=#ffffff;strokeColor=#2D7600;" vertex="1" parent="1">
          <mxGeometry x="420" y="500" width="110" height="50" as="geometry" />
        </mxCell>
        <mxCell id="vugCyfD3QLyV5UbuW-dE-21" value="Timeslot" style="shape=ext;margin=3;double=1;whiteSpace=wrap;html=1;align=center;fillColor=#008a00;fontColor=#ffffff;strokeColor=#005700;" vertex="1" parent="1">
          <mxGeometry x="582.5" y="80" width="115" height="50" as="geometry" />
        </mxCell>
        <mxCell id="vugCyfD3QLyV5UbuW-dE-22" value="Reserve" style="shape=rhombus;double=1;perimeter=rhombusPerimeter;whiteSpace=wrap;html=1;align=center;fillColor=#1ba1e2;fontColor=#ffffff;strokeColor=#006EAF;" vertex="1" parent="1">
          <mxGeometry x="580" y="180" width="120" height="60" as="geometry" />
        </mxCell>
        <mxCell id="vugCyfD3QLyV5UbuW-dE-26" value="Facility" style="whiteSpace=wrap;html=1;align=center;fillColor=#60a917;fontColor=#ffffff;strokeColor=#2D7600;" vertex="1" parent="1">
          <mxGeometry x="582.5" y="-100" width="115" height="50" as="geometry" />
        </mxCell>
        <mxCell id="vugCyfD3QLyV5UbuW-dE-27" value="For" style="shape=rhombus;double=1;perimeter=rhombusPerimeter;whiteSpace=wrap;html=1;align=center;fillColor=#1ba1e2;fontColor=#ffffff;strokeColor=#006EAF;" vertex="1" parent="1">
          <mxGeometry x="580" y="-10" width="120" height="60" as="geometry" />
        </mxCell>
        <mxCell id="vugCyfD3QLyV5UbuW-dE-35" value="" style="endArrow=none;html=1;rounded=0;entryX=0.5;entryY=1;entryDx=0;entryDy=0;exitX=0.5;exitY=0;exitDx=0;exitDy=0;" edge="1" parent="1" source="vugCyfD3QLyV5UbuW-dE-1" target="vugCyfD3QLyV5UbuW-dE-22">
          <mxGeometry relative="1" as="geometry">
            <mxPoint x="410" y="290" as="sourcePoint" />
            <mxPoint x="570" y="290" as="targetPoint" />
          </mxGeometry>
        </mxCell>
        <mxCell id="vugCyfD3QLyV5UbuW-dE-36" value="1" style="resizable=0;html=1;whiteSpace=wrap;align=right;verticalAlign=bottom;" connectable="0" vertex="1" parent="vugCyfD3QLyV5UbuW-dE-35">
          <mxGeometry x="1" relative="1" as="geometry">
            <mxPoint x="-10" y="30" as="offset" />
          </mxGeometry>
        </mxCell>
        <mxCell id="vugCyfD3QLyV5UbuW-dE-43" value="" style="endArrow=none;html=1;rounded=0;entryX=0.5;entryY=0;entryDx=0;entryDy=0;exitX=0.5;exitY=1;exitDx=0;exitDy=0;" edge="1" parent="1" source="vugCyfD3QLyV5UbuW-dE-21" target="vugCyfD3QLyV5UbuW-dE-22">
          <mxGeometry relative="1" as="geometry">
            <mxPoint x="660" y="140" as="sourcePoint" />
            <mxPoint x="659" y="196" as="targetPoint" />
          </mxGeometry>
        </mxCell>
        <mxCell id="vugCyfD3QLyV5UbuW-dE-47" value="" style="endArrow=none;html=1;rounded=0;exitX=0.5;exitY=0;exitDx=0;exitDy=0;" edge="1" parent="1" target="vugCyfD3QLyV5UbuW-dE-26">
          <mxGeometry relative="1" as="geometry">
            <mxPoint x="639.82" y="-10" as="sourcePoint" />
            <mxPoint x="639.82" y="-40" as="targetPoint" />
          </mxGeometry>
        </mxCell>
        <mxCell id="vugCyfD3QLyV5UbuW-dE-48" value="1" style="resizable=0;html=1;whiteSpace=wrap;align=right;verticalAlign=bottom;" connectable="0" vertex="1" parent="vugCyfD3QLyV5UbuW-dE-47">
          <mxGeometry x="1" relative="1" as="geometry">
            <mxPoint x="-10" y="27" as="offset" />
          </mxGeometry>
        </mxCell>
        <mxCell id="vugCyfD3QLyV5UbuW-dE-49" value="Course" style="whiteSpace=wrap;html=1;align=center;fillColor=#60a917;fontColor=#ffffff;strokeColor=#2D7600;" vertex="1" parent="1">
          <mxGeometry x="80" y="510" width="100" height="40" as="geometry" />
        </mxCell>
        <mxCell id="vugCyfD3QLyV5UbuW-dE-50" value="Read" style="shape=rhombus;perimeter=rhombusPerimeter;whiteSpace=wrap;html=1;align=center;fillColor=#1ba1e2;fontColor=#ffffff;strokeColor=#006EAF;" vertex="1" parent="1">
          <mxGeometry x="240" y="500" width="120" height="60" as="geometry" />
        </mxCell>
        <mxCell id="vugCyfD3QLyV5UbuW-dE-54" value="" style="endArrow=none;html=1;rounded=0;exitX=1;exitY=0.5;exitDx=0;exitDy=0;" edge="1" parent="1" source="vugCyfD3QLyV5UbuW-dE-50">
          <mxGeometry relative="1" as="geometry">
            <mxPoint x="300" y="490" as="sourcePoint" />
            <mxPoint x="418" y="531" as="targetPoint" />
          </mxGeometry>
        </mxCell>
        <mxCell id="vugCyfD3QLyV5UbuW-dE-55" value="M" style="resizable=0;html=1;whiteSpace=wrap;align=right;verticalAlign=bottom;" connectable="0" vertex="1" parent="vugCyfD3QLyV5UbuW-dE-54">
          <mxGeometry x="1" relative="1" as="geometry">
            <mxPoint x="-18" y="-6" as="offset" />
          </mxGeometry>
        </mxCell>
        <mxCell id="vugCyfD3QLyV5UbuW-dE-56" value="" style="endArrow=none;html=1;rounded=0;entryX=0;entryY=0.5;entryDx=0;entryDy=0;exitX=1;exitY=0.5;exitDx=0;exitDy=0;" edge="1" parent="1">
          <mxGeometry relative="1" as="geometry">
            <mxPoint x="180" y="529.8" as="sourcePoint" />
            <mxPoint x="240" y="529.8" as="targetPoint" />
          </mxGeometry>
        </mxCell>
        <mxCell id="vugCyfD3QLyV5UbuW-dE-57" value="N" style="resizable=0;html=1;whiteSpace=wrap;align=right;verticalAlign=bottom;" connectable="0" vertex="1" parent="vugCyfD3QLyV5UbuW-dE-56">
          <mxGeometry x="1" relative="1" as="geometry">
            <mxPoint x="-20" y="-5" as="offset" />
          </mxGeometry>
        </mxCell>
        <mxCell id="vugCyfD3QLyV5UbuW-dE-59" value="" style="endArrow=none;html=1;rounded=0;entryX=0.027;entryY=0.719;entryDx=0;entryDy=0;entryPerimeter=0;exitX=1;exitY=0.5;exitDx=0;exitDy=0;" edge="1" parent="1" source="vugCyfD3QLyV5UbuW-dE-9" target="vugCyfD3QLyV5UbuW-dE-4">
          <mxGeometry relative="1" as="geometry">
            <mxPoint x="330" y="320" as="sourcePoint" />
            <mxPoint x="490" y="320" as="targetPoint" />
          </mxGeometry>
        </mxCell>
        <mxCell id="vugCyfD3QLyV5UbuW-dE-65" value="Program" style="whiteSpace=wrap;html=1;align=center;fillColor=#60a917;fontColor=#ffffff;strokeColor=#2D7600;" vertex="1" parent="1">
          <mxGeometry x="230" y="680" width="110" height="50" as="geometry" />
        </mxCell>
        <mxCell id="vugCyfD3QLyV5UbuW-dE-66" value="Enroll in" style="shape=rhombus;perimeter=rhombusPerimeter;whiteSpace=wrap;html=1;align=center;fillColor=#1ba1e2;fontColor=#ffffff;strokeColor=#006EAF;" vertex="1" parent="1">
          <mxGeometry x="415" y="675" width="120" height="60" as="geometry" />
        </mxCell>
        <mxCell id="vugCyfD3QLyV5UbuW-dE-67" value="" style="endArrow=none;html=1;rounded=0;entryX=0.5;entryY=0;entryDx=0;entryDy=0;" edge="1" parent="1" source="vugCyfD3QLyV5UbuW-dE-9" target="vugCyfD3QLyV5UbuW-dE-66">
          <mxGeometry relative="1" as="geometry">
            <mxPoint x="310" y="530" as="sourcePoint" />
            <mxPoint x="470" y="530" as="targetPoint" />
          </mxGeometry>
        </mxCell>
        <mxCell id="vugCyfD3QLyV5UbuW-dE-68" value="1" style="resizable=0;html=1;whiteSpace=wrap;align=right;verticalAlign=bottom;" connectable="0" vertex="1" parent="vugCyfD3QLyV5UbuW-dE-67">
          <mxGeometry x="1" relative="1" as="geometry">
            <mxPoint x="-15" y="-55" as="offset" />
          </mxGeometry>
        </mxCell>
        <mxCell id="vugCyfD3QLyV5UbuW-dE-69" value="" style="endArrow=none;html=1;rounded=0;entryX=0;entryY=0.5;entryDx=0;entryDy=0;" edge="1" parent="1" source="vugCyfD3QLyV5UbuW-dE-65" target="vugCyfD3QLyV5UbuW-dE-66">
          <mxGeometry relative="1" as="geometry">
            <mxPoint x="310" y="530" as="sourcePoint" />
            <mxPoint x="430" y="705" as="targetPoint" />
          </mxGeometry>
        </mxCell>
        <mxCell id="vugCyfD3QLyV5UbuW-dE-70" value="N" style="resizable=0;html=1;whiteSpace=wrap;align=right;verticalAlign=bottom;" connectable="0" vertex="1" parent="vugCyfD3QLyV5UbuW-dE-69">
          <mxGeometry x="1" relative="1" as="geometry">
            <mxPoint x="-25" y="-15" as="offset" />
          </mxGeometry>
        </mxCell>
        <mxCell id="vugCyfD3QLyV5UbuW-dE-71" value="Contains" style="shape=rhombus;perimeter=rhombusPerimeter;whiteSpace=wrap;html=1;align=center;fillColor=#1ba1e2;fontColor=#ffffff;strokeColor=#006EAF;" vertex="1" parent="1">
          <mxGeometry x="70" y="675" width="120" height="60" as="geometry" />
        </mxCell>
        <mxCell id="vugCyfD3QLyV5UbuW-dE-72" value="" style="endArrow=none;html=1;rounded=0;" edge="1" parent="1">
          <mxGeometry relative="1" as="geometry">
            <mxPoint x="180" y="700" as="sourcePoint" />
            <mxPoint x="230" y="700" as="targetPoint" />
          </mxGeometry>
        </mxCell>
        <mxCell id="vugCyfD3QLyV5UbuW-dE-73" value="N" style="resizable=0;html=1;whiteSpace=wrap;align=right;verticalAlign=bottom;" connectable="0" vertex="1" parent="vugCyfD3QLyV5UbuW-dE-72">
          <mxGeometry x="1" relative="1" as="geometry">
            <mxPoint x="-20" as="offset" />
          </mxGeometry>
        </mxCell>
        <mxCell id="vugCyfD3QLyV5UbuW-dE-74" value="" style="endArrow=none;html=1;rounded=0;" edge="1" parent="1">
          <mxGeometry relative="1" as="geometry">
            <mxPoint x="180" y="710" as="sourcePoint" />
            <mxPoint x="230" y="710" as="targetPoint" />
          </mxGeometry>
        </mxCell>
        <mxCell id="vugCyfD3QLyV5UbuW-dE-76" value="" style="endArrow=none;html=1;rounded=0;exitX=0.5;exitY=0;exitDx=0;exitDy=0;" edge="1" parent="1" source="vugCyfD3QLyV5UbuW-dE-71">
          <mxGeometry relative="1" as="geometry">
            <mxPoint x="150" y="660" as="sourcePoint" />
            <mxPoint x="130" y="550" as="targetPoint" />
          </mxGeometry>
        </mxCell>
        <mxCell id="vugCyfD3QLyV5UbuW-dE-77" value="M" style="resizable=0;html=1;whiteSpace=wrap;align=right;verticalAlign=bottom;" connectable="0" vertex="1" parent="vugCyfD3QLyV5UbuW-dE-76">
          <mxGeometry x="1" relative="1" as="geometry">
            <mxPoint x="-10" y="60" as="offset" />
          </mxGeometry>
        </mxCell>
        <mxCell id="vugCyfD3QLyV5UbuW-dE-79" value="" style="shape=link;html=1;rounded=0;width=57.44186046511628;entryX=0.5;entryY=0;entryDx=0;entryDy=0;" edge="1" parent="1" target="vugCyfD3QLyV5UbuW-dE-49">
          <mxGeometry relative="1" as="geometry">
            <mxPoint x="130" y="440" as="sourcePoint" />
            <mxPoint x="410" y="420" as="targetPoint" />
          </mxGeometry>
        </mxCell>
        <mxCell id="vugCyfD3QLyV5UbuW-dE-80" value="M" style="resizable=0;html=1;whiteSpace=wrap;align=left;verticalAlign=bottom;" connectable="0" vertex="1" parent="vugCyfD3QLyV5UbuW-dE-79">
          <mxGeometry x="-1" relative="1" as="geometry">
            <mxPoint x="-50" y="50" as="offset" />
          </mxGeometry>
        </mxCell>
        <mxCell id="vugCyfD3QLyV5UbuW-dE-81" value="N" style="resizable=0;html=1;whiteSpace=wrap;align=right;verticalAlign=bottom;" connectable="0" vertex="1" parent="vugCyfD3QLyV5UbuW-dE-79">
          <mxGeometry x="1" relative="1" as="geometry">
            <mxPoint x="50" y="-30" as="offset" />
          </mxGeometry>
        </mxCell>
        <mxCell id="vugCyfD3QLyV5UbuW-dE-78" value="prerequisite" style="shape=rhombus;perimeter=rhombusPerimeter;whiteSpace=wrap;html=1;align=center;fillColor=#1ba1e2;fontColor=#ffffff;strokeColor=#006EAF;" vertex="1" parent="1">
          <mxGeometry x="70" y="400" width="120" height="60" as="geometry" />
        </mxCell>
        <mxCell id="vugCyfD3QLyV5UbuW-dE-82" value="Department" style="whiteSpace=wrap;html=1;align=center;fillColor=#60a917;fontColor=#ffffff;strokeColor=#2D7600;" vertex="1" parent="1">
          <mxGeometry x="10" y="230" width="100" height="40" as="geometry" />
        </mxCell>
        <mxCell id="vugCyfD3QLyV5UbuW-dE-85" value="Belongs to" style="shape=rhombus;perimeter=rhombusPerimeter;whiteSpace=wrap;html=1;align=center;fillColor=#1ba1e2;fontColor=#ffffff;strokeColor=#006EAF;" vertex="1" parent="1">
          <mxGeometry x="-140" y="490" width="120" height="60" as="geometry" />
        </mxCell>
        <mxCell id="vugCyfD3QLyV5UbuW-dE-89" value="" style="shape=link;html=1;rounded=0;entryX=0.5;entryY=0;entryDx=0;entryDy=0;exitX=0;exitY=0.5;exitDx=0;exitDy=0;" edge="1" parent="1" source="vugCyfD3QLyV5UbuW-dE-82" target="vugCyfD3QLyV5UbuW-dE-85">
          <mxGeometry relative="1" as="geometry">
            <mxPoint x="-170" y="370" as="sourcePoint" />
            <mxPoint x="-10" y="370" as="targetPoint" />
            <Array as="points">
              <mxPoint x="-80" y="250" />
            </Array>
          </mxGeometry>
        </mxCell>
        <mxCell id="vugCyfD3QLyV5UbuW-dE-90" value="N" style="resizable=0;html=1;whiteSpace=wrap;align=right;verticalAlign=bottom;" connectable="0" vertex="1" parent="vugCyfD3QLyV5UbuW-dE-89">
          <mxGeometry x="1" relative="1" as="geometry">
            <mxPoint x="-10" y="-150" as="offset" />
          </mxGeometry>
        </mxCell>
        <mxCell id="vugCyfD3QLyV5UbuW-dE-91" value="" style="shape=link;html=1;rounded=0;exitX=0.5;exitY=1;exitDx=0;exitDy=0;entryX=0.5;entryY=1;entryDx=0;entryDy=0;" edge="1" parent="1" source="vugCyfD3QLyV5UbuW-dE-85" target="vugCyfD3QLyV5UbuW-dE-65">
          <mxGeometry relative="1" as="geometry">
            <mxPoint x="-100" y="735" as="sourcePoint" />
            <mxPoint x="60" y="735" as="targetPoint" />
            <Array as="points">
              <mxPoint x="-80" y="770" />
              <mxPoint x="100" y="770" />
              <mxPoint x="285" y="770" />
            </Array>
          </mxGeometry>
        </mxCell>
        <mxCell id="vugCyfD3QLyV5UbuW-dE-92" value="1" style="resizable=0;html=1;whiteSpace=wrap;align=right;verticalAlign=bottom;" connectable="0" vertex="1" parent="vugCyfD3QLyV5UbuW-dE-91">
          <mxGeometry x="1" relative="1" as="geometry">
            <mxPoint x="-205" y="60" as="offset" />
          </mxGeometry>
        </mxCell>
        <mxCell id="vugCyfD3QLyV5UbuW-dE-93" value="Faculty" style="whiteSpace=wrap;html=1;align=center;fillColor=#60a917;fontColor=#ffffff;strokeColor=#2D7600;" vertex="1" parent="1">
          <mxGeometry x="250" y="50" width="100" height="40" as="geometry" />
        </mxCell>
        <mxCell id="vugCyfD3QLyV5UbuW-dE-96" value="Has" style="shape=rhombus;perimeter=rhombusPerimeter;whiteSpace=wrap;html=1;align=center;fillColor=#1ba1e2;fontColor=#ffffff;strokeColor=#006EAF;" vertex="1" parent="1">
          <mxGeometry y="40" width="120" height="60" as="geometry" />
        </mxCell>
        <mxCell id="vugCyfD3QLyV5UbuW-dE-98" value="" style="shape=link;html=1;rounded=0;exitX=0.5;exitY=1;exitDx=0;exitDy=0;entryX=0.5;entryY=0;entryDx=0;entryDy=0;" edge="1" parent="1" source="vugCyfD3QLyV5UbuW-dE-96" target="vugCyfD3QLyV5UbuW-dE-82">
          <mxGeometry relative="1" as="geometry">
            <mxPoint x="190" y="320" as="sourcePoint" />
            <mxPoint x="350" y="320" as="targetPoint" />
          </mxGeometry>
        </mxCell>
        <mxCell id="vugCyfD3QLyV5UbuW-dE-99" value="N" style="resizable=0;html=1;whiteSpace=wrap;align=right;verticalAlign=bottom;" connectable="0" vertex="1" parent="vugCyfD3QLyV5UbuW-dE-98">
          <mxGeometry x="1" relative="1" as="geometry">
            <mxPoint x="-10" y="-20" as="offset" />
          </mxGeometry>
        </mxCell>
        <mxCell id="vugCyfD3QLyV5UbuW-dE-100" value="" style="shape=link;html=1;rounded=0;entryX=-0.024;entryY=0.526;entryDx=0;entryDy=0;entryPerimeter=0;" edge="1" parent="1" source="vugCyfD3QLyV5UbuW-dE-96" target="vugCyfD3QLyV5UbuW-dE-93">
          <mxGeometry relative="1" as="geometry">
            <mxPoint x="50" y="190" as="sourcePoint" />
            <mxPoint x="210" y="190" as="targetPoint" />
          </mxGeometry>
        </mxCell>
        <mxCell id="vugCyfD3QLyV5UbuW-dE-101" value="1" style="resizable=0;html=1;whiteSpace=wrap;align=right;verticalAlign=bottom;" connectable="0" vertex="1" parent="vugCyfD3QLyV5UbuW-dE-100">
          <mxGeometry x="1" relative="1" as="geometry">
            <mxPoint x="-27" y="-1" as="offset" />
          </mxGeometry>
        </mxCell>
        <mxCell id="vugCyfD3QLyV5UbuW-dE-102" value="" style="shape=link;html=1;rounded=0;exitX=0.5;exitY=1;exitDx=0;exitDy=0;entryX=0.5;entryY=0;entryDx=0;entryDy=0;" edge="1" parent="1" source="vugCyfD3QLyV5UbuW-dE-27" target="vugCyfD3QLyV5UbuW-dE-21">
          <mxGeometry relative="1" as="geometry">
            <mxPoint x="490" y="160" as="sourcePoint" />
            <mxPoint x="650" y="160" as="targetPoint" />
          </mxGeometry>
        </mxCell>
        <mxCell id="vugCyfD3QLyV5UbuW-dE-103" value="N" style="resizable=0;html=1;whiteSpace=wrap;align=right;verticalAlign=bottom;" connectable="0" vertex="1" parent="vugCyfD3QLyV5UbuW-dE-102">
          <mxGeometry x="1" relative="1" as="geometry">
            <mxPoint x="-10" y="-10" as="offset" />
          </mxGeometry>
        </mxCell>
        <mxCell id="vugCyfD3QLyV5UbuW-dE-104" value="" style="shape=link;html=1;rounded=0;exitX=0.5;exitY=0;exitDx=0;exitDy=0;entryX=0.5;entryY=1;entryDx=0;entryDy=0;" edge="1" parent="1" source="vugCyfD3QLyV5UbuW-dE-4" target="vugCyfD3QLyV5UbuW-dE-1">
          <mxGeometry relative="1" as="geometry">
            <mxPoint x="490" y="360" as="sourcePoint" />
            <mxPoint x="650" y="360" as="targetPoint" />
          </mxGeometry>
        </mxCell>
        <mxCell id="vugCyfD3QLyV5UbuW-dE-106" value="Committee" style="whiteSpace=wrap;html=1;align=center;fillColor=#60a917;fontColor=#ffffff;strokeColor=#2D7600;" vertex="1" parent="1">
          <mxGeometry x="445" y="190" width="100" height="40" as="geometry" />
        </mxCell>
        <mxCell id="vugCyfD3QLyV5UbuW-dE-107" value="Form" style="shape=rhombus;perimeter=rhombusPerimeter;whiteSpace=wrap;html=1;align=center;fillColor=#1ba1e2;fontColor=#ffffff;strokeColor=#006EAF;" vertex="1" parent="1">
          <mxGeometry x="435" y="40" width="120" height="60" as="geometry" />
        </mxCell>
        <mxCell id="vugCyfD3QLyV5UbuW-dE-109" value="" style="endArrow=none;html=1;rounded=0;exitX=1;exitY=0.5;exitDx=0;exitDy=0;" edge="1" parent="1" source="vugCyfD3QLyV5UbuW-dE-93" target="vugCyfD3QLyV5UbuW-dE-107">
          <mxGeometry relative="1" as="geometry">
            <mxPoint x="320" y="290" as="sourcePoint" />
            <mxPoint x="480" y="290" as="targetPoint" />
          </mxGeometry>
        </mxCell>
        <mxCell id="vugCyfD3QLyV5UbuW-dE-110" value="1" style="resizable=0;html=1;whiteSpace=wrap;align=right;verticalAlign=bottom;" connectable="0" vertex="1" parent="vugCyfD3QLyV5UbuW-dE-109">
          <mxGeometry x="1" relative="1" as="geometry">
            <mxPoint x="-35" as="offset" />
          </mxGeometry>
        </mxCell>
        <mxCell id="vugCyfD3QLyV5UbuW-dE-111" value="" style="shape=link;html=1;rounded=0;exitX=0.5;exitY=1;exitDx=0;exitDy=0;entryX=0.5;entryY=0;entryDx=0;entryDy=0;" edge="1" parent="1" source="vugCyfD3QLyV5UbuW-dE-107" target="vugCyfD3QLyV5UbuW-dE-106">
          <mxGeometry relative="1" as="geometry">
            <mxPoint x="320" y="290" as="sourcePoint" />
            <mxPoint x="480" y="290" as="targetPoint" />
          </mxGeometry>
        </mxCell>
        <mxCell id="vugCyfD3QLyV5UbuW-dE-112" value="N" style="resizable=0;html=1;whiteSpace=wrap;align=right;verticalAlign=bottom;" connectable="0" vertex="1" parent="vugCyfD3QLyV5UbuW-dE-111">
          <mxGeometry x="1" relative="1" as="geometry">
            <mxPoint x="25" y="-40" as="offset" />
          </mxGeometry>
        </mxCell>
        <mxCell id="vugCyfD3QLyV5UbuW-dE-117" value="Admin staff" style="whiteSpace=wrap;html=1;align=center;fillColor=#60a917;fontColor=#ffffff;strokeColor=#2D7600;" vertex="1" parent="1">
          <mxGeometry x="630" y="510" width="100" height="40" as="geometry" />
        </mxCell>
        <mxCell id="vugCyfD3QLyV5UbuW-dE-118" value="" style="endArrow=none;html=1;rounded=0;entryX=0.5;entryY=0;entryDx=0;entryDy=0;exitX=0.706;exitY=0.963;exitDx=0;exitDy=0;exitPerimeter=0;" edge="1" parent="1" source="vugCyfD3QLyV5UbuW-dE-4" target="vugCyfD3QLyV5UbuW-dE-117">
          <mxGeometry relative="1" as="geometry">
            <mxPoint x="638" y="406" as="sourcePoint" />
            <mxPoint x="410" y="430" as="targetPoint" />
          </mxGeometry>
        </mxCell>
        <mxCell id="vugCyfD3QLyV5UbuW-dE-119" value="" style="endArrow=none;html=1;rounded=0;exitX=1;exitY=0.5;exitDx=0;exitDy=0;entryX=0.057;entryY=0.254;entryDx=0;entryDy=0;entryPerimeter=0;" edge="1" parent="1" source="vugCyfD3QLyV5UbuW-dE-7" target="vugCyfD3QLyV5UbuW-dE-4">
          <mxGeometry relative="1" as="geometry">
            <mxPoint x="360" y="480" as="sourcePoint" />
            <mxPoint x="620" y="387" as="targetPoint" />
          </mxGeometry>
        </mxCell>
        <mxCell id="vugCyfD3QLyV5UbuW-dE-120" value="Teach" style="shape=rhombus;perimeter=rhombusPerimeter;whiteSpace=wrap;html=1;align=center;fillColor=#1ba1e2;fontColor=#ffffff;strokeColor=#006EAF;" vertex="1" parent="1">
          <mxGeometry x="-30" y="315" width="120" height="60" as="geometry" />
        </mxCell>
        <mxCell id="vugCyfD3QLyV5UbuW-dE-121" value="" style="endArrow=none;html=1;rounded=0;exitX=1;exitY=0.5;exitDx=0;exitDy=0;entryX=0;entryY=0.5;entryDx=0;entryDy=0;" edge="1" parent="1">
          <mxGeometry relative="1" as="geometry">
            <mxPoint x="90" y="344.8200000000002" as="sourcePoint" />
            <mxPoint x="280.0000000000002" y="344.8200000000002" as="targetPoint" />
          </mxGeometry>
        </mxCell>
        <mxCell id="vugCyfD3QLyV5UbuW-dE-122" value="M" style="resizable=0;html=1;whiteSpace=wrap;align=right;verticalAlign=bottom;" connectable="0" vertex="1" parent="vugCyfD3QLyV5UbuW-dE-121">
          <mxGeometry x="1" relative="1" as="geometry">
            <mxPoint x="-80" y="-5" as="offset" />
          </mxGeometry>
        </mxCell>
        <mxCell id="vugCyfD3QLyV5UbuW-dE-123" value="" style="shape=link;html=1;rounded=0;exitX=0.5;exitY=1;exitDx=0;exitDy=0;entryX=0;entryY=0.5;entryDx=0;entryDy=0;" edge="1" parent="1" source="vugCyfD3QLyV5UbuW-dE-120" target="vugCyfD3QLyV5UbuW-dE-49">
          <mxGeometry relative="1" as="geometry">
            <mxPoint x="210" y="460" as="sourcePoint" />
            <mxPoint x="370" y="460" as="targetPoint" />
            <Array as="points">
              <mxPoint x="30" y="530" />
            </Array>
          </mxGeometry>
        </mxCell>
        <mxCell id="vugCyfD3QLyV5UbuW-dE-124" value="N" style="resizable=0;html=1;whiteSpace=wrap;align=right;verticalAlign=bottom;" connectable="0" vertex="1" parent="vugCyfD3QLyV5UbuW-dE-123">
          <mxGeometry x="1" relative="1" as="geometry">
            <mxPoint x="-60" y="-80" as="offset" />
          </mxGeometry>
        </mxCell>
        <mxCell id="vugCyfD3QLyV5UbuW-dE-132" value="" style="shape=link;html=1;rounded=0;exitX=0.5;exitY=0;exitDx=0;exitDy=0;width=74.61538461538461;" edge="1" parent="1">
          <mxGeometry relative="1" as="geometry">
            <mxPoint x="340" y="460" as="sourcePoint" />
            <mxPoint x="340.26" y="360" as="targetPoint" />
          </mxGeometry>
        </mxCell>
        <mxCell id="vugCyfD3QLyV5UbuW-dE-133" value="M" style="resizable=0;html=1;whiteSpace=wrap;align=left;verticalAlign=bottom;" connectable="0" vertex="1" parent="vugCyfD3QLyV5UbuW-dE-132">
          <mxGeometry x="-1" relative="1" as="geometry" />
        </mxCell>
        <mxCell id="vugCyfD3QLyV5UbuW-dE-134" value="N" style="resizable=0;html=1;whiteSpace=wrap;align=right;verticalAlign=bottom;" connectable="0" vertex="1" parent="vugCyfD3QLyV5UbuW-dE-132">
          <mxGeometry x="1" relative="1" as="geometry" />
        </mxCell>
        <mxCell id="vugCyfD3QLyV5UbuW-dE-7" value="Professor" style="rounded=0;whiteSpace=wrap;html=1;fillColor=#60a917;fontColor=#ffffff;strokeColor=#2D7600;" vertex="1" parent="1">
          <mxGeometry x="280" y="320" width="120" height="50" as="geometry" />
        </mxCell>
        <mxCell id="vugCyfD3QLyV5UbuW-dE-128" value="Supervise" style="shape=rhombus;perimeter=rhombusPerimeter;whiteSpace=wrap;html=1;align=center;fillColor=#1ba1e2;fontColor=#ffffff;strokeColor=#006EAF;" vertex="1" parent="1">
          <mxGeometry x="280" y="440" width="120" height="60" as="geometry" />
        </mxCell>
        <mxCell id="vugCyfD3QLyV5UbuW-dE-137" value="M" style="resizable=0;html=1;whiteSpace=wrap;align=right;verticalAlign=bottom;" connectable="0" vertex="1" parent="1">
          <mxGeometry x="290" y="420.00000000000017" as="geometry" />
        </mxCell>
        <mxCell id="vugCyfD3QLyV5UbuW-dE-138" value="N" style="resizable=0;html=1;whiteSpace=wrap;align=right;verticalAlign=bottom;" connectable="0" vertex="1" parent="1">
          <mxGeometry x="400" y="420.00000000000017" as="geometry" />
        </mxCell>
        <mxCell id="vugCyfD3QLyV5UbuW-dE-139" value="From" style="shape=rhombus;perimeter=rhombusPerimeter;whiteSpace=wrap;html=1;align=center;fillColor=#1ba1e2;fontColor=#ffffff;strokeColor=#006EAF;" vertex="1" parent="1">
          <mxGeometry x="170" y="220" width="120" height="60" as="geometry" />
        </mxCell>
        <mxCell id="vugCyfD3QLyV5UbuW-dE-140" value="Serve on" style="shape=rhombus;perimeter=rhombusPerimeter;whiteSpace=wrap;html=1;align=center;fillColor=#1ba1e2;fontColor=#ffffff;strokeColor=#006EAF;" vertex="1" parent="1">
          <mxGeometry x="270" y="130" width="120" height="60" as="geometry" />
        </mxCell>
        <mxCell id="vugCyfD3QLyV5UbuW-dE-141" value="" style="shape=link;html=1;rounded=0;exitX=0.967;exitY=0.502;exitDx=0;exitDy=0;entryX=0.25;entryY=0;entryDx=0;entryDy=0;exitPerimeter=0;" edge="1" parent="1" source="vugCyfD3QLyV5UbuW-dE-139" target="vugCyfD3QLyV5UbuW-dE-7">
          <mxGeometry relative="1" as="geometry">
            <mxPoint x="220" y="310" as="sourcePoint" />
            <mxPoint x="300" y="330" as="targetPoint" />
            <Array as="points">
              <mxPoint x="310" y="250" />
            </Array>
          </mxGeometry>
        </mxCell>
        <mxCell id="vugCyfD3QLyV5UbuW-dE-142" value="1" style="resizable=0;html=1;whiteSpace=wrap;align=left;verticalAlign=bottom;" connectable="0" vertex="1" parent="vugCyfD3QLyV5UbuW-dE-141">
          <mxGeometry x="-1" relative="1" as="geometry">
            <mxPoint x="4" y="40" as="offset" />
          </mxGeometry>
        </mxCell>
        <mxCell id="vugCyfD3QLyV5UbuW-dE-144" value="" style="endArrow=none;html=1;rounded=0;exitX=1;exitY=0.5;exitDx=0;exitDy=0;entryX=0;entryY=0.5;entryDx=0;entryDy=0;" edge="1" parent="1" source="vugCyfD3QLyV5UbuW-dE-82" target="vugCyfD3QLyV5UbuW-dE-139">
          <mxGeometry relative="1" as="geometry">
            <mxPoint x="100" y="300" as="sourcePoint" />
            <mxPoint x="260" y="300" as="targetPoint" />
          </mxGeometry>
        </mxCell>
        <mxCell id="vugCyfD3QLyV5UbuW-dE-145" value="N" style="resizable=0;html=1;whiteSpace=wrap;align=right;verticalAlign=bottom;" connectable="0" vertex="1" parent="vugCyfD3QLyV5UbuW-dE-144">
          <mxGeometry x="1" relative="1" as="geometry">
            <mxPoint x="-20" as="offset" />
          </mxGeometry>
        </mxCell>
        <mxCell id="vugCyfD3QLyV5UbuW-dE-146" value="" style="shape=link;html=1;rounded=0;entryX=0;entryY=0.5;entryDx=0;entryDy=0;exitX=0.957;exitY=0.504;exitDx=0;exitDy=0;exitPerimeter=0;" edge="1" parent="1" source="vugCyfD3QLyV5UbuW-dE-140" target="vugCyfD3QLyV5UbuW-dE-106">
          <mxGeometry relative="1" as="geometry">
            <mxPoint x="380" y="210" as="sourcePoint" />
            <mxPoint x="480" y="400" as="targetPoint" />
            <Array as="points">
              <mxPoint x="400" y="160" />
              <mxPoint x="420" y="160" />
              <mxPoint x="420" y="210" />
            </Array>
          </mxGeometry>
        </mxCell>
        <mxCell id="vugCyfD3QLyV5UbuW-dE-147" value="N" style="resizable=0;html=1;whiteSpace=wrap;align=right;verticalAlign=bottom;" connectable="0" vertex="1" parent="vugCyfD3QLyV5UbuW-dE-146">
          <mxGeometry x="1" relative="1" as="geometry">
            <mxPoint x="-10" y="-40" as="offset" />
          </mxGeometry>
        </mxCell>
        <mxCell id="vugCyfD3QLyV5UbuW-dE-148" value="" style="endArrow=none;html=1;rounded=0;entryX=0.75;entryY=0;entryDx=0;entryDy=0;exitX=0.5;exitY=1;exitDx=0;exitDy=0;" edge="1" parent="1" source="vugCyfD3QLyV5UbuW-dE-140" target="vugCyfD3QLyV5UbuW-dE-7">
          <mxGeometry relative="1" as="geometry">
            <mxPoint x="250" y="230" as="sourcePoint" />
            <mxPoint x="410" y="230" as="targetPoint" />
            <Array as="points">
              <mxPoint x="330" y="220" />
              <mxPoint x="370" y="220" />
            </Array>
          </mxGeometry>
        </mxCell>
        <mxCell id="vugCyfD3QLyV5UbuW-dE-149" value="M" style="resizable=0;html=1;whiteSpace=wrap;align=right;verticalAlign=bottom;" connectable="0" vertex="1" parent="vugCyfD3QLyV5UbuW-dE-148">
          <mxGeometry x="1" relative="1" as="geometry">
            <mxPoint x="20" y="-50" as="offset" />
          </mxGeometry>
        </mxCell>
        <mxCell id="vugCyfD3QLyV5UbuW-dE-150" value="" style="verticalLabelPosition=bottom;verticalAlign=top;html=1;shape=mxgraph.basic.arc;startAngle=0.506816754651464;endAngle=0.9771867216964281;rotation=10;" vertex="1" parent="1">
          <mxGeometry x="530" y="350" width="40" height="40" as="geometry" />
        </mxCell>
        <mxCell id="vugCyfD3QLyV5UbuW-dE-151" value="" style="verticalLabelPosition=bottom;verticalAlign=top;html=1;shape=mxgraph.basic.arc;startAngle=0.506816754651464;endAngle=0.9771867216964281;rotation=-60;" vertex="1" parent="1">
          <mxGeometry x="570" y="420" width="40" height="40" as="geometry" />
        </mxCell>
        <mxCell id="vugCyfD3QLyV5UbuW-dE-152" value="" style="verticalLabelPosition=bottom;verticalAlign=top;html=1;shape=mxgraph.basic.arc;startAngle=0.506816754651464;endAngle=0.9771867216964281;rotation=-105;" vertex="1" parent="1">
          <mxGeometry x="640" y="420" width="40" height="40" as="geometry" />
        </mxCell>
      </root>
    </mxGraphModel>
  </diagram>
</mxfile>
